<svg xmlns="http://www.w3.org/2000/svg" version="1.1" xmlns:xlink="http://www.w3.org/1999/xlink" width="512px" height="512px"><svg xmlns="http://www.w3.org/2000/svg" version="1.1" xmlns:xlink="http://www.w3.org/1999/xlink" width="512px" height="512px"><svg version="1.1" id="logo" xmlns="http://www.w3.org/2000/svg" xmlns:xlink="http://www.w3.org/1999/xlink" x="0px" y="0px" width="512px" height="512px" viewBox="0 0 512 512" enable-background="new 0 0 512 512" xml:space="preserve">
<path id="bg" fill="#141B31" d="M334,512H178C79.6933136,512,0,432.3066711,0,334V178C0,79.6933136,79.6933136,0,178,0h156
	c98.3066711,0,178,79.6933136,178,178v156C512,432.3066711,432.3066711,512,334,512z"></path>
<g id="plug">
	<!-- ВСЕ ПРАВА ПРЕДНАЛЕЖАТ UNTRUSTEDMODDERS и FR4NCH -->
	<path fill="#9997FF" d="M359.1681213,312.2648621l-9.3784485-9.3784485l79.7165222-79.716507
		c7.7693176-7.7693176,7.7693176-20.3659515,0-28.1352539l-9.378418-9.378418
		c-7.7693481-7.7693481-20.3659363-7.7693024-28.1352234,0l-79.7165222,79.7165375l-65.6489258-65.6489105l79.7165222-79.7165451
		c7.7693176-7.7692871,7.7693176-20.3659439,0-28.135231l-9.378418-9.378418
		c-7.7693481-7.7693634-20.3659058-7.7693024-28.1352234,0l-79.7165527,79.7165222l-9.3784027-9.3784027
		c-7.7693787-7.7693787-20.3659363-7.7693176-28.1352539,0l-18.7568359,18.7568359
		c-7.7693481,7.7693481-7.7693481,20.3658752,0,28.1352386l9.3784332,9.378418l-35.6509781,50.2505951L250.41716,298.679657
		l-72.2689819,17.7981567l110.0761871,43.7108459l14.6732178-10.4101563l9.3784485,9.3784485
		c7.7692871,7.7692871,20.3658752,7.7693481,28.1352234,0l18.7568665-18.7568665
		C366.9373779,332.6307983,366.9373779,320.0341492,359.1681213,312.2648621z"></path>
	<!-- ВСЕ ПРАВА ПРЕДНАЛЕЖАТ UNTRUSTEDMODDERS и FR4NCH -->
	<path fill="#9997FF" d="M89.1759567,312.0609741l-8.8400726,12.4602356
		c-5.6134796,7.9121704-4.7015686,18.7195129,2.158226,25.5792847l16.2565994,16.2565918l4.6891937-4.689209
		c7.76931-7.7693176,20.3658981-7.7693481,28.1352615,0l18.7568207,18.7568665
		c7.7693176,7.7692566,7.7693176,20.3659058,0,28.1352234l-4.689209,4.689209l16.2568665,16.2568665
		c6.8598022,6.8598328,17.6670837,7.7716675,25.5793152,2.1582336l88.7416229-62.9593201L89.1759567,312.0609741z"></path>
	<!-- ВСЕ ПРАВА ПРЕДНАЛЕЖАТ UNTRUSTEDMODDERS и FR4NCH -->
	<polygon fill="#9997FF" points="195.6041412,294.5723877 121.5405807,266.4424438 91.2405243,309.1509399 	"></polygon>
</g>
</svg></svg><style>@media (prefers-color-scheme: light) { :root { filter: none; } }
@media (prefers-color-scheme: dark) { :root { filter: none; } }
</style></svg>